# xmcd CD database file
# Copyright (C) 1993-1996 Ti Kan
#
# Track frame offsets:
# 150
# 32212
# 56925
# 87182
# 101925
# 130567
# 145855
# 168145
# 194250
# 211552
# 233140
# 260420
# 284185
# 298350
# 311527
# 326965
#
# Disc length: 4640 seconds
# Revision: 0
# Processed by: cddbd v1.4b41PL1 Copyright (c) Steve Scherf et al.
# Submitted via: CDSpectrumPro v3.2.328
#
DISCID=f9121e10
DTITLE=Georgia Mass Choir - I Sing Because I'm Happy
DYEAR=1900
DGENRE=
TTITLE0=Yes To Your Will
TTITLE1=I Sing Because I'm Happy
TTITLE2=Joy - Soloist
TTITLE3=I'll Let Nothing Seperate Me
TTITLE4=Jesus never Fails (Part 1)
TTITLE5=Jesus Never Fails (Part 2)
TTITLE6=He's Always There For Me
TTITLE7=How Much Do I Owe
TTITLE8=Oh Bless The Name Jesus
TTITLE9=Do You Know Him
TTITLE10=He's Got It All In Control
TTITLE11=He Will Deliver
TTITLE12=Praise His Holy Name
TTITLE13=He's On The Mainline Now
TTITLE14=When You Pray
TTITLE15=He Will Provide
EXTD=
EXTT0=
EXTT1=
EXTT2=
EXTT3=
EXTT4=
EXTT5=
EXTT6=
EXTT7=
EXTT8=
EXTT9=
EXTT10=
EXTT11=
EXTT12=
EXTT13=
EXTT14=
EXTT15=
PLAYORDER=
